<!DOCTYPE svg PUBLIC "-//W3C//DTD SVG 1.1//EN" "http://www.w3.org/Graphics/SVG/1.1/DTD/svg11.dtd">
<!-- Uploaded to: SVG Repo, www.svgrepo.com, Transformed by: SVG Repo Mixer Tools -->
<svg height="64px" width="64px" version="1.1" id="Capa_1" xmlns="http://www.w3.org/2000/svg" xmlns:xlink="http://www.w3.org/1999/xlink" viewBox="-61.48 -61.48 484.63 484.63" xml:space="preserve" fill="#575757" stroke="#575757" stroke-width="0.00361666">
<g id="SVGRepo_bgCarrier" stroke-width="0"/>
<g id="SVGRepo_tracerCarrier" stroke-linecap="round" stroke-linejoin="round" stroke="#CCCCCC" stroke-width="2.169996"/>
<g id="SVGRepo_iconCarrier"> <g> <g> <path style="fill:#222220;" d="M268.504,307.38H63.125C28.317,307.38,0,279.063,0,244.255s28.317-63.125,63.125-63.125 c4.893,0,9.763,0.575,14.503,1.696c-2.251-8.481-3.386-17.193-3.386-26.05c0-56.514,45.977-102.49,102.489-102.49 c22.32,0,43.537,7.051,61.358,20.392c15.742,11.783,27.938,28.138,34.763,46.478c49.358,2.279,88.813,43.149,88.813,93.062 C361.666,265.587,319.874,307.38,268.504,307.38z M63.125,196.13C36.589,196.13,15,217.719,15,244.255 s21.589,48.125,48.125,48.125h205.379c43.099,0,78.162-35.063,78.162-78.163c0-43.067-35.013-78.11-78.068-78.162l-0.086,0.006 c-0.317,0.023-0.635,0.042-0.956,0.046c-0.028,0-0.057,0-0.085,0c-3.282,0-6.188-2.137-7.162-5.278 c-5.412-17.453-16.495-33.13-31.208-44.143c-15.206-11.383-33.315-17.399-52.369-17.399c-48.242,0-87.489,39.248-87.489,87.49 c0,12.354,2.595,24.393,7.711,35.78c1.325,2.948,0.612,6.413-1.769,8.599c-2.381,2.185-5.895,2.6-8.718,1.03 C79.345,198.224,71.273,196.13,63.125,196.13z"/> </g> </g> </g>
</svg>