<?xml version="1.0" ?><svg id="ICON" viewBox="0 0 512 512" xmlns="http://www.w3.org/2000/svg"><defs><style>.cls-1{fill:none;}.cls-1,.cls-2,.cls-3,.cls-4{stroke:#66667e;}.cls-1,.cls-2,.cls-3,.cls-4,.cls-5{stroke-linecap:round;stroke-linejoin:round;stroke-width:15px;}.cls-2{fill:#5f9ccb;}.cls-3{fill:#b0cbe0;}.cls-4{fill:#fff;}.cls-5{fill:#f4e146;stroke:#889;}</style></defs><title/><rect class="cls-1" height="262" width="262" x="126.5" y="126.65"/><rect class="cls-2" height="127" rx="25" ry="25" width="127" x="63.47" y="63.5"/><rect class="cls-2" height="127" rx="25" ry="25" width="127" x="321.47" y="321.5"/><rect class="cls-3" height="127" rx="25" ry="25" transform="translate(511.97 -257.97) rotate(90)" width="127" x="321.47" y="63.5"/><rect class="cls-3" height="127" rx="25" ry="25" transform="translate(511.97 258.03) rotate(90)" width="127" x="63.47" y="321.5"/><polygon class="cls-4" points="154.81 283.5 98.11 283.5 126.46 226.8 154.81 283.5"/><polygon class="cls-4" points="360.11 226.65 416.81 226.65 388.46 283.35 360.11 226.65"/><polygon class="cls-4" points="227.11 155.5 227.11 98.8 283.81 127.15 227.11 155.5"/><polygon class="cls-4" points="283.81 359.8 283.81 416.5 227.11 388.15 283.81 359.8"/><circle class="cls-5" cx="255.5" cy="255.5" r="43"/></svg>